<svg width="34" height="38" viewBox="0 0 34 38" fill="none" xmlns="http://www.w3.org/2000/svg">
<g filter="url(#filter0_d_1_193)">
<path d="M29.707 19.293L27 16.586V13C26.9969 10.5218 26.075 8.13285 24.4126 6.29498C22.7502 4.45712 20.4654 3.30093 18 3.05V1H16V3.05C13.5346 3.30093 11.2498 4.45712 9.58737 6.29498C7.92498 8.13285 7.0031 10.5218 7 13V16.586L4.293 19.293C4.10545 19.4805 4.00006 19.7348 4 20V23C4 23.2652 4.10536 23.5196 4.29289 23.7071C4.48043 23.8946 4.73478 24 5 24H12V25C12 26.3261 12.5268 27.5979 13.4645 28.5355C14.4021 29.4732 15.6739 30 17 30C18.3261 30 19.5979 29.4732 20.5355 28.5355C21.4732 27.5979 22 26.3261 22 25V24H29C29.2652 24 29.5196 23.8946 29.7071 23.7071C29.8946 23.5196 30 23.2652 30 23V20C29.9999 19.7348 29.8946 19.4805 29.707 19.293ZM20 25C20 25.7956 19.6839 26.5587 19.1213 27.1213C18.5587 27.6839 17.7956 28 17 28C16.2044 28 15.4413 27.6839 14.8787 27.1213C14.3161 26.5587 14 25.7956 14 25V24H20V25Z" fill="#40ACE9"/>
</g>
<defs>
<filter id="filter0_d_1_193" x="-3" y="0" width="40" height="40" filterUnits="userSpaceOnUse" color-interpolation-filters="sRGB">
<feFlood flood-opacity="0" result="BackgroundImageFix"/>
<feColorMatrix in="SourceAlpha" type="matrix" values="0 0 0 0 0 0 0 0 0 0 0 0 0 0 0 0 0 0 127 0" result="hardAlpha"/>
<feOffset dy="4"/>
<feGaussianBlur stdDeviation="2"/>
<feComposite in2="hardAlpha" operator="out"/>
<feColorMatrix type="matrix" values="0 0 0 0 0 0 0 0 0 0 0 0 0 0 0 0 0 0 0.25 0"/>
<feBlend mode="normal" in2="BackgroundImageFix" result="effect1_dropShadow_1_193"/>
<feBlend mode="normal" in="SourceGraphic" in2="effect1_dropShadow_1_193" result="shape"/>
</filter>
</defs>
</svg>
