<svg width="40" height="40" viewBox="0 0 40 40" fill="none" xmlns="http://www.w3.org/2000/svg">
<g filter="url(#filter0_d_1_209)">
<path d="M22.81 2.1C21.984 -0.7 18.016 -0.7 17.19 2.1L16.99 2.78C16.8666 3.19919 16.6509 3.58544 16.3588 3.91042C16.0667 4.23541 15.7055 4.49089 15.3018 4.65813C14.8981 4.82537 14.4621 4.90012 14.0257 4.87691C13.5893 4.8537 13.1637 4.73312 12.78 4.524L12.16 4.184C9.594 2.788 6.788 5.594 8.186 8.158L8.524 8.78C9.416 10.42 8.57 12.462 6.78 12.99L6.1 13.19C3.3 14.016 3.3 17.984 6.1 18.81L6.78 19.01C7.19919 19.1334 7.58544 19.3491 7.91042 19.6412C8.23541 19.9333 8.49089 20.2945 8.65813 20.6982C8.82537 21.1019 8.90012 21.5379 8.87691 21.9743C8.8537 22.4107 8.73312 22.8363 8.524 23.22L8.184 23.84C6.788 26.406 9.594 29.212 12.158 27.814L12.78 27.476C13.1637 27.2669 13.5893 27.1463 14.0257 27.1231C14.4621 27.0999 14.8981 27.1746 15.3018 27.3419C15.7055 27.5091 16.0667 27.7646 16.3588 28.0896C16.6509 28.4146 16.8666 28.8008 16.99 29.22L17.19 29.9C18.016 32.7 21.984 32.7 22.81 29.9L23.01 29.22C23.1334 28.8008 23.3491 28.4146 23.6412 28.0896C23.9333 27.7646 24.2945 27.5091 24.6982 27.3419C25.1019 27.1746 25.5379 27.0999 25.9743 27.1231C26.4107 27.1463 26.8363 27.2669 27.22 27.476L27.84 27.816C30.406 29.212 33.212 26.406 31.814 23.842L31.476 23.22C31.2669 22.8363 31.1463 22.4107 31.1231 21.9743C31.0999 21.5379 31.1746 21.1019 31.3419 20.6982C31.5091 20.2945 31.7646 19.9333 32.0896 19.6412C32.4146 19.3491 32.8008 19.1334 33.22 19.01L33.9 18.81C36.7 17.984 36.7 14.016 33.9 13.19L33.22 12.99C32.8008 12.8666 32.4146 12.6509 32.0896 12.3588C31.7646 12.0667 31.5091 11.7055 31.3419 11.3018C31.1746 10.8981 31.0999 10.4621 31.1231 10.0257C31.1463 9.58933 31.2669 9.16369 31.476 8.78L31.816 8.16C33.212 5.594 30.406 2.788 27.842 4.186L27.22 4.524C26.8363 4.73312 26.4107 4.8537 25.9743 4.87691C25.5379 4.90012 25.1019 4.82537 24.6982 4.65813C24.2945 4.49089 23.9333 4.23541 23.6412 3.91042C23.3491 3.58544 23.1334 3.19919 23.01 2.78L22.81 2.1ZM20 21.86C18.4458 21.86 16.9553 21.2426 15.8564 20.1436C14.7574 19.0447 14.14 17.5542 14.14 16C14.14 14.4458 14.7574 12.9553 15.8564 11.8564C16.9553 10.7574 18.4458 10.14 20 10.14C21.5536 10.14 23.0436 10.7572 24.1422 11.8558C25.2408 12.9544 25.858 14.4444 25.858 15.998C25.858 17.5516 25.2408 19.0416 24.1422 20.1402C23.0436 21.2388 21.5536 21.856 20 21.856V21.86Z" fill="#40ACE9"/>
</g>
<defs>
<filter id="filter0_d_1_209" x="0" y="0" width="40" height="40" filterUnits="userSpaceOnUse" color-interpolation-filters="sRGB">
<feFlood flood-opacity="0" result="BackgroundImageFix"/>
<feColorMatrix in="SourceAlpha" type="matrix" values="0 0 0 0 0 0 0 0 0 0 0 0 0 0 0 0 0 0 127 0" result="hardAlpha"/>
<feOffset dy="4"/>
<feGaussianBlur stdDeviation="2"/>
<feComposite in2="hardAlpha" operator="out"/>
<feColorMatrix type="matrix" values="0 0 0 0 0 0 0 0 0 0 0 0 0 0 0 0 0 0 0.25 0"/>
<feBlend mode="normal" in2="BackgroundImageFix" result="effect1_dropShadow_1_209"/>
<feBlend mode="normal" in="SourceGraphic" in2="effect1_dropShadow_1_209" result="shape"/>
</filter>
</defs>
</svg>
