<svg width="57" height="55" viewBox="0 0 57 55" fill="none" xmlns="http://www.w3.org/2000/svg">
<g filter="url(#filter0_d_9_36)">
<path d="M19.3359 44.775L24.9141 39.375C22.9219 39 21.0891 38.25 19.4156 37.2L19.3359 44.775ZM37.6641 3.22501L32.0859 8.62501C34.0781 9.00001 35.9109 9.75001 37.5844 10.8L37.6641 3.22501ZM6.42657 32.625L14.475 32.55C13.3594 30.975 12.5625 29.25 12.1641 27.375L6.42657 32.625ZM50.5734 15.375L42.525 15.45C43.5609 17.025 44.3578 18.75 44.8359 20.625L50.5734 15.375ZM6.42657 15.375L12.1641 20.625C12.5625 18.75 13.3594 17.025 14.475 15.45L6.42657 15.375ZM50.5734 32.625L44.8359 27.375C44.4375 29.25 43.6406 30.975 42.525 32.55L50.5734 32.625ZM19.3359 3.22501L19.4156 10.8C21.0891 9.82501 22.9219 9.07501 24.9141 8.62501L19.3359 3.22501ZM37.6641 44.775L37.5844 37.2C35.9109 38.25 34.0781 39 32.0859 39.375L37.6641 44.775Z" fill="#FFE62E"/>
<path d="M14.7937 33L11.6063 39.975L19.0172 36.975C17.3438 35.85 15.9094 34.5 14.7937 33ZM42.2062 15L45.3937 8.025L38.0625 11.025C39.6562 12.15 41.0906 13.5 42.2062 15ZM12.0844 21.225L4.59375 24L12.0844 26.775C11.8453 25.875 11.7656 24.975 11.7656 24C11.7656 23.025 11.8453 22.125 12.0844 21.225ZM44.9156 26.775L52.4062 24L44.9156 21.225C45.075 22.125 45.2344 23.1 45.2344 24C45.2344 24.975 45.1547 25.875 44.9156 26.775ZM18.9375 11.1L11.5266 8.1L14.7141 15.075C15.9094 13.5 17.3438 12.15 18.9375 11.1ZM38.0625 36.9L45.4734 39.9L42.2859 32.925C41.0906 34.5 39.6562 35.85 38.0625 36.9ZM31.4484 8.55L28.5 1.5L25.5516 8.55C26.5078 8.4 27.5438 8.25 28.5 8.25C29.4562 8.25 30.4922 8.325 31.4484 8.55ZM25.5516 39.45L28.5 46.5L31.4484 39.45C30.4922 39.675 29.5359 39.75 28.5 39.75C27.4641 39.75 26.5078 39.675 25.5516 39.45Z" fill="#FFCE31"/>
<path d="M28.5 38.25C36.8619 38.25 43.6406 31.8701 43.6406 24C43.6406 16.1299 36.8619 9.75 28.5 9.75C20.1381 9.75 13.3594 16.1299 13.3594 24C13.3594 31.8701 20.1381 38.25 28.5 38.25Z" fill="#FFCE31"/>
</g>
<defs>
<filter id="filter0_d_9_36" x="-1" y="0" width="59" height="56" filterUnits="userSpaceOnUse" color-interpolation-filters="sRGB">
<feFlood flood-opacity="0" result="BackgroundImageFix"/>
<feColorMatrix in="SourceAlpha" type="matrix" values="0 0 0 0 0 0 0 0 0 0 0 0 0 0 0 0 0 0 127 0" result="hardAlpha"/>
<feOffset dy="4"/>
<feGaussianBlur stdDeviation="2"/>
<feComposite in2="hardAlpha" operator="out"/>
<feColorMatrix type="matrix" values="0 0 0 0 0 0 0 0 0 0 0 0 0 0 0 0 0 0 0.25 0"/>
<feBlend mode="normal" in2="BackgroundImageFix" result="effect1_dropShadow_9_36"/>
<feBlend mode="normal" in="SourceGraphic" in2="effect1_dropShadow_9_36" result="shape"/>
</filter>
</defs>
</svg>
