<svg width="39" height="44" viewBox="0 0 39 44" fill="none" xmlns="http://www.w3.org/2000/svg">
<g filter="url(#filter0_d_11_60)">
<path d="M6.58126 24.8016C6.27657 25.6688 6.52032 26.5359 7.19063 26.7672C7.86094 26.9984 8.65313 26.4781 9.01876 25.6109C9.38438 24.5703 9.44532 23.2406 9.14063 21.6219C7.86094 22.7203 6.94688 23.8188 6.58126 24.8016ZM8.04376 33.1844C8.40938 32.1438 8.47032 30.8141 8.16563 29.1953C6.88594 30.2359 5.97188 31.3344 5.60626 32.375C5.30157 33.2422 5.54532 34.1094 6.21563 34.3406C6.88594 34.5719 7.73907 34.0516 8.04376 33.1844ZM31.3828 21.6219C30.1031 22.6625 29.1891 23.7609 28.8234 24.8016C28.5188 25.6688 28.7625 26.5359 29.4328 26.7672C30.1031 26.9984 30.8953 26.4781 31.2609 25.6109C31.5656 24.6281 31.6266 23.2406 31.3828 21.6219ZM23.2781 32.3172C22.9734 33.1844 23.2172 34.0516 23.8875 34.2828C24.5578 34.5141 25.35 33.9938 25.7156 33.1266C26.0813 32.0859 26.1422 30.7563 25.8375 29.1375C24.6188 30.2359 23.7047 31.3344 23.2781 32.3172ZM28.5797 32.3172C28.275 33.1844 28.5188 34.0516 29.1891 34.2828C29.8594 34.5141 30.6516 33.9938 31.0172 33.1266C31.3828 32.0859 31.4438 30.7563 31.1391 29.1375C29.8594 30.2359 28.9453 31.3344 28.5797 32.3172ZM11.3344 32.3172C11.0297 33.1844 11.2734 34.0516 11.9438 34.2828C12.6141 34.5141 13.4063 33.9938 13.7719 33.1266C14.1375 32.0859 14.1984 30.7563 13.8938 29.1375C12.6141 30.2359 11.7 31.3344 11.3344 32.3172Z" fill="#75D6FF"/>
<path d="M14.9297 18.4422L11.9438 27.8078H19.5609L17.0016 35.8438L27.0563 24.1656H19.8047L21.5719 18.4422H14.9297Z" fill="#FFCE31"/>
<path d="M11.0906 18.7891C10.6031 18.7891 10.1156 18.7312 9.62813 18.5578C7.73906 17.9797 6.39844 16.3031 6.39844 14.3953C6.39844 13.1234 7.00781 11.9094 7.98281 11.1C8.22656 10.8688 8.53125 10.6953 8.83594 10.5219L9.14062 9.48125C9.93281 6.9375 12.4313 5.14531 15.2344 5.14531C15.5391 5.14531 15.7828 5.14531 16.1484 5.20312C16.3922 5.26094 16.6359 5.26094 16.8797 5.37656L17.0016 5.14531C18.1594 3.2375 20.2922 2.02344 22.6078 2.02344C26.2031 2.02344 29.0672 4.74062 29.0672 8.09375V8.67188C29.3109 8.7875 29.6156 8.90313 29.8594 9.01875C31.5656 9.94375 32.6016 11.6781 32.6016 13.5281C32.6016 15.9562 30.8344 18.0375 28.3359 18.6156C27.9094 18.7313 27.4828 18.7313 27.1172 18.7313H11.0906V18.7891Z" fill="white"/>
<path d="M22.6078 2.89062C25.6547 2.89062 28.0922 5.20312 28.0922 8.03594V8.44063C26.8125 8.55625 25.6547 9.01875 24.8016 9.77031C25.4719 9.42344 26.2641 9.19219 27.0563 9.19219C27.3609 9.19219 27.6656 9.25 27.9703 9.25C28.4578 9.36563 28.9453 9.53906 29.3719 9.77031C30.7734 10.5219 31.6875 11.9094 31.6875 13.5281C31.6875 15.6094 30.1641 17.2859 28.1531 17.7484C27.7266 17.8641 27.4219 17.9219 27.0563 17.9219H11.0906C10.6641 17.9219 10.2984 17.8641 9.93282 17.7484C8.47032 17.2859 7.37344 15.9563 7.37344 14.3953C7.37344 13.3547 7.86094 12.3719 8.65313 11.7359C9.01876 11.4469 9.44532 11.2156 9.87188 11.0422C10.2375 10.9266 10.6641 10.8687 11.0906 10.8687C12.3094 10.8687 13.3453 11.3891 14.0766 12.2563H14.1375C13.3453 10.8688 11.8828 9.88594 10.1156 9.77031C10.7859 7.63125 12.8578 6.07031 15.2953 6.07031C15.5391 6.07031 15.8438 6.07031 16.0875 6.12813C16.575 6.18594 17.0625 6.30156 17.4891 6.53281C19.1344 7.22656 20.3531 8.67188 20.5969 10.4641V10.4062C20.5969 8.44062 19.5 6.64844 17.8547 5.60781C18.7688 3.98906 20.5969 2.89062 22.6078 2.89062ZM22.6078 1.15625C20.1094 1.15625 17.7938 2.37031 16.4531 4.39375H16.2703C15.9047 4.33594 15.5391 4.33594 15.2344 4.33594C12.0047 4.33594 9.14063 6.35938 8.28751 9.30781L8.10469 10.0016C7.86094 10.1172 7.67813 10.2906 7.43438 10.4641C6.21563 11.4469 5.54532 12.8922 5.54532 14.4531C5.54532 16.7656 7.06876 18.7313 9.38438 19.4828C9.93282 19.6562 10.5422 19.7719 11.1516 19.7719H27.1172C27.6047 19.7719 28.0922 19.7141 28.5797 19.5984C31.5047 18.9625 33.5766 16.5344 33.5766 13.6438C33.5766 11.4469 32.3578 9.42344 30.3469 8.38281C30.225 8.325 30.1641 8.26719 30.0422 8.20937V8.15156C29.9813 4.27813 26.6906 1.15625 22.6078 1.15625Z" fill="#B6C1D1"/>
</g>
<defs>
<filter id="filter0_d_11_60" x="-4" y="0" width="47" height="45" filterUnits="userSpaceOnUse" color-interpolation-filters="sRGB">
<feFlood flood-opacity="0" result="BackgroundImageFix"/>
<feColorMatrix in="SourceAlpha" type="matrix" values="0 0 0 0 0 0 0 0 0 0 0 0 0 0 0 0 0 0 127 0" result="hardAlpha"/>
<feOffset dy="4"/>
<feGaussianBlur stdDeviation="2"/>
<feComposite in2="hardAlpha" operator="out"/>
<feColorMatrix type="matrix" values="0 0 0 0 0 0 0 0 0 0 0 0 0 0 0 0 0 0 0.25 0"/>
<feBlend mode="normal" in2="BackgroundImageFix" result="effect1_dropShadow_11_60"/>
<feBlend mode="normal" in="SourceGraphic" in2="effect1_dropShadow_11_60" result="shape"/>
</filter>
</defs>
</svg>
