<svg width="48" height="40" viewBox="0 0 48 40" fill="none" xmlns="http://www.w3.org/2000/svg">
<g filter="url(#filter0_d_11_54)">
<path d="M24 23.7188C29.0741 23.7188 33.1875 20.4868 33.1875 16.5C33.1875 12.5132 29.0741 9.28125 24 9.28125C18.9259 9.28125 14.8125 12.5132 14.8125 16.5C14.8125 20.4868 18.9259 23.7188 24 23.7188Z" fill="#FFCE31"/>
<path d="M27.675 8.09531L24 1.03125L20.325 8.09531C21.5063 7.94062 22.7531 7.8375 24 7.8375C25.2469 7.8375 26.4937 7.94062 27.675 8.09531ZM20.325 24.9047L24 31.9688L27.675 24.9047C26.4937 25.0594 25.2469 25.1625 24 25.1625C22.7531 25.1625 21.5063 25.0594 20.325 24.9047ZM34.6969 19.3875L43.6875 16.5L34.6969 13.6125C34.8937 14.5406 35.025 15.5203 35.025 16.5C35.025 17.4797 34.8937 18.4594 34.6969 19.3875ZM13.3031 13.6125L4.3125 16.5L13.3031 19.3875C13.1062 18.4594 12.975 17.4797 12.975 16.5C12.975 15.5203 13.1062 14.5406 13.3031 13.6125ZM34.1719 12.5813L37.9125 5.56875L28.9875 8.50781C29.9719 9.075 30.9563 9.64219 31.8094 10.3641C32.7281 11.0859 33.45 11.8078 34.1719 12.5813ZM13.8281 20.4187L10.0875 27.4312L19.0125 24.4922C18.0281 23.925 17.0437 23.3578 16.1906 22.6359C15.2719 21.9141 14.55 21.1922 13.8281 20.4187ZM28.9875 24.4922L37.9125 27.4312L34.1719 20.4187C33.45 21.1922 32.7281 21.9656 31.8094 22.6359C30.8906 23.3578 29.9719 23.925 28.9875 24.4922ZM19.0125 8.50781L10.0875 5.56875L13.8281 12.5813C14.55 11.8078 15.2719 11.0344 16.1906 10.3641C17.1094 9.64219 18.0281 9.075 19.0125 8.50781Z" fill="#FFCE31"/>
<path d="M22.6875 23.6156C22.2281 23.6156 21.7687 23.5641 21.3094 23.4609C19.5375 22.9969 18.2906 21.6563 18.2906 20.1094C18.2906 19.0781 18.8156 18.15 19.8 17.4797L20.5875 17.0156L20.85 16.1906C21.5719 14.1797 23.9344 12.7359 26.5594 12.7359C26.8219 12.7359 27.0844 12.7359 27.4125 12.7875C27.675 12.8391 27.8719 12.8391 28.1344 12.8906L28.2656 12.7359C29.3156 11.1891 31.35 10.2609 33.5156 10.2609C36.7969 10.2609 39.4875 12.4266 39.4875 15.0563V15.5203C39.75 15.6234 40.0125 15.675 40.2094 15.8297C41.7844 16.5516 42.8344 17.9438 42.8344 19.4391C42.8344 21.3984 41.1937 23.0484 38.8312 23.4609C38.4375 23.5125 38.0437 23.5641 37.65 23.5641L22.6875 23.6156Z" fill="white"/>
<path d="M33.5156 10.9828C36.3375 10.9828 38.6344 12.8391 38.6344 15.1078V15.4172C37.4531 15.4687 36.4031 15.8812 35.55 16.4484C36.2062 16.1391 36.9281 15.9844 37.7156 15.9844C37.9781 15.9844 38.3062 15.9844 38.5688 16.0359C39.0281 16.0875 39.4875 16.2422 39.8813 16.4484C41.1938 17.0672 42.0469 18.15 42.0469 19.4391C42.0469 21.0891 40.6031 22.4297 38.7 22.7906C38.3719 22.8422 38.0438 22.8937 37.7156 22.8937H22.6875C22.2937 22.8937 21.9656 22.8422 21.5719 22.7391C20.1937 22.3781 19.1438 21.2953 19.1438 20.0578C19.1438 19.2328 19.6031 18.4594 20.325 17.9437C20.6531 17.6859 21.0469 17.5312 21.4406 17.4281C21.7688 17.325 22.1625 17.2734 22.6219 17.2734C23.7375 17.2734 24.7219 17.6859 25.3781 18.3562C24.6562 17.2734 23.2781 16.5 21.6375 16.3453C22.2281 14.6437 24.1969 13.4062 26.4937 13.4062C26.7562 13.4062 26.9531 13.4062 27.2156 13.4578C27.675 13.5094 28.1344 13.6125 28.5281 13.7672C30.1031 14.3344 31.2188 15.4687 31.4813 16.8609C31.4813 15.2625 30.4969 13.8703 28.9219 13.0453C29.9062 11.8078 31.5469 10.9828 33.5156 10.9828ZM33.5156 9.59062C31.1531 9.59062 28.9875 10.5703 27.675 12.1687H27.5438C27.2156 12.1172 26.8875 12.1172 26.5594 12.1172C23.5406 12.1172 20.85 13.7156 20.0625 16.0875L19.8656 16.6547C19.6688 16.7578 19.4719 16.9125 19.275 17.0156C18.0937 17.7375 17.4375 18.8719 17.4375 20.1094C17.4375 21.9141 18.8813 23.5125 21.0469 24.0797C21.5719 24.2344 22.1625 24.2859 22.6875 24.2859H37.65C38.1094 24.2859 38.5688 24.2344 39.0281 24.1828C41.7844 23.6672 43.6875 21.7078 43.6875 19.4391C43.6875 17.6859 42.5063 16.0875 40.6688 15.2109C40.6031 15.1594 40.4719 15.1078 40.4062 15.1078V15.0562C40.4062 12.0656 37.3219 9.59062 33.5156 9.59062Z" fill="#75D6FF"/>
</g>
<defs>
<filter id="filter0_d_11_54" x="-1" y="0" width="50" height="41" filterUnits="userSpaceOnUse" color-interpolation-filters="sRGB">
<feFlood flood-opacity="0" result="BackgroundImageFix"/>
<feColorMatrix in="SourceAlpha" type="matrix" values="0 0 0 0 0 0 0 0 0 0 0 0 0 0 0 0 0 0 127 0" result="hardAlpha"/>
<feOffset dy="4"/>
<feGaussianBlur stdDeviation="2"/>
<feComposite in2="hardAlpha" operator="out"/>
<feColorMatrix type="matrix" values="0 0 0 0 0 0 0 0 0 0 0 0 0 0 0 0 0 0 0.25 0"/>
<feBlend mode="normal" in2="BackgroundImageFix" result="effect1_dropShadow_11_54"/>
<feBlend mode="normal" in="SourceGraphic" in2="effect1_dropShadow_11_54" result="shape"/>
</filter>
</defs>
</svg>
