<svg width="56" height="42" viewBox="0 0 56 42" fill="none" xmlns="http://www.w3.org/2000/svg">
<g filter="url(#filter0_d_11_47)">
<path d="M18.625 15.5312C22.2494 15.5312 25.1875 13.4746 25.1875 10.9375C25.1875 8.40044 22.2494 6.34375 18.625 6.34375C15.0006 6.34375 12.0625 8.40044 12.0625 10.9375C12.0625 13.4746 15.0006 15.5312 18.625 15.5312Z" fill="#FFCE31"/>
<path d="M21.2812 5.57812L18.625 1.09375L15.9688 5.57812C16.8281 5.46875 17.6875 5.41406 18.625 5.41406C19.5625 5.41406 20.4219 5.46875 21.2812 5.57812ZM15.9688 16.2969L18.625 20.7812L21.2812 16.2969C20.4219 16.4062 19.5625 16.4609 18.625 16.4609C17.6875 16.4609 16.8281 16.4062 15.9688 16.2969ZM26.2812 12.7969L32.6875 10.9375L26.2812 9.07812C26.4375 9.67969 26.5156 10.2812 26.5156 10.9375C26.5156 11.5938 26.4375 12.1953 26.2812 12.7969ZM10.9688 9.07812L4.5625 10.9375L10.9688 12.7969C10.8125 12.1953 10.7344 11.5938 10.7344 10.9375C10.7344 10.2812 10.8125 9.67969 10.9688 9.07812ZM25.8906 8.47656L28.5469 3.99219L22.1406 5.85156C22.8438 6.17969 23.5469 6.5625 24.1719 7.05469C24.875 7.49219 25.4219 7.98438 25.8906 8.47656ZM11.3594 13.3984L8.70312 17.8828L15.1094 16.0234C14.4062 15.6953 13.7031 15.3125 13.0781 14.8203C12.375 14.3828 11.8281 13.9453 11.3594 13.3984ZM22.1406 16.0234L28.5469 17.8828L25.8906 13.3984C25.4219 13.8906 24.875 14.3828 24.1719 14.8203C23.5469 15.3125 22.9219 15.6953 22.1406 16.0234ZM15.1094 5.85156L8.70312 3.99219L11.3594 8.47656C11.8281 7.98438 12.375 7.49219 13.0781 7.05469C13.7031 6.5625 14.4062 6.17969 15.1094 5.85156Z" fill="#FFCE31"/>
<path d="M21.75 18.3203C21.125 18.3203 20.4219 18.2656 19.7969 18.1016C17.2969 17.5 15.5781 15.8594 15.5781 14C15.5781 12.7422 16.3594 11.5938 17.6875 10.7734C18 10.5547 18.3906 10.3906 18.7812 10.2266L19.1719 9.24219C20.1875 6.78125 23.4687 5.03125 27.2187 5.03125C27.6094 5.03125 28 5.03125 28.3906 5.08594C28.7031 5.14063 29.0937 5.19531 29.4062 5.25L29.5625 5.03125C31.0469 3.17187 33.9375 1.96875 36.9844 1.96875C41.6719 1.96875 45.5 4.59375 45.5 7.875V8.47656C45.8906 8.58594 46.2031 8.69531 46.5156 8.80469C48.7812 9.73438 50.1875 11.4297 50.1875 13.2344C50.1875 15.6406 47.8437 17.6641 44.4844 18.2109C43.9375 18.3203 43.3906 18.3203 42.8438 18.3203H21.75Z" fill="white"/>
<path d="M37.0625 2.78906C41.0469 2.78906 44.3281 5.03125 44.3281 7.82031V8.20312C42.6875 8.3125 41.125 8.75 39.9531 9.46094C40.8125 9.07812 41.9063 8.91406 43 8.91406C43.3906 8.91406 43.7813 8.96875 44.1719 8.96875C44.7969 9.07812 45.4219 9.24219 46.0469 9.46094C47.8437 10.1719 49.0938 11.5391 49.0938 13.125C49.0938 15.1484 47.0625 16.8438 44.4062 17.2266C43.9375 17.2812 43.5469 17.3359 43.0781 17.3359H21.75C21.2031 17.3359 20.6563 17.2812 20.1875 17.1719C18.2344 16.7344 16.8281 15.4219 16.8281 13.8906C16.8281 12.8516 17.4531 11.9219 18.5469 11.3203C19.0156 11.0469 19.5625 10.8281 20.1875 10.6641C20.7344 10.5547 21.2813 10.4453 21.8281 10.4453C23.3906 10.4453 24.875 10.9922 25.7344 11.8125H25.8125C24.7969 10.4453 22.7656 9.51562 20.5 9.35156C21.3594 7.27344 24.0938 5.74219 27.375 5.74219C27.6875 5.74219 28.0781 5.74219 28.3906 5.79688C29.0156 5.85156 29.7188 6.01562 30.2656 6.17969C32.4531 6.83594 34.0938 8.3125 34.4062 10.0078V9.95312C34.4062 7.98438 33 6.28906 30.8125 5.30469C31.9062 3.88281 34.3281 2.78906 37.0625 2.78906ZM37.0625 1.09375C33.7031 1.09375 30.6562 2.29687 28.8594 4.21094H28.625C28.0781 4.15625 27.6875 4.15625 27.2188 4.15625C22.9219 4.15625 19.1719 6.125 18 9.02344L17.6875 9.67969C17.375 9.78906 17.0625 9.95312 16.8281 10.1172C15.1875 11.1016 14.25 12.5234 14.25 14C14.25 16.2422 16.2812 18.2109 19.3281 18.9219C20.1094 19.0859 20.8906 19.1953 21.6719 19.1953H42.8437C43.4687 19.1953 44.0937 19.1406 44.7969 19.0312C48.7031 18.4297 51.4375 16.0234 51.4375 13.2344C51.4375 11.1016 49.7969 9.13281 47.1406 8.09375C46.9844 8.03906 46.9062 7.98438 46.75 7.92969V7.875C46.75 4.15625 42.375 1.09375 37.0625 1.09375Z" fill="#B6C1D1"/>
<path d="M25.5 25.1562C25.0312 26.0312 25.4219 26.9062 26.3594 27.125C27.2969 27.3437 28.3906 26.8516 28.8594 25.9766C29.4062 24.9922 29.4062 23.5703 29.0937 21.9844C27.2969 23.0781 25.9687 24.1719 25.5 25.1562ZM35.7344 26.0312C36.2812 25.0469 36.2812 23.625 35.9687 22.0391C34.25 23.0781 33 24.1719 32.4531 25.2109C31.9844 26.0859 32.375 26.9609 33.3125 27.1797C34.25 27.3984 35.2656 26.8516 35.7344 26.0312ZM42.8437 22.0391C41.125 23.0781 39.875 24.1719 39.3281 25.2109C38.8594 26.0859 39.25 26.9609 40.1875 27.1797C41.125 27.3984 42.2187 26.9062 42.6875 26.0312C43.1562 24.9922 43.1562 23.625 42.8437 22.0391ZM18.5469 25.1562C18.0781 26.0312 18.4687 26.9062 19.4062 27.125C20.3437 27.3437 21.4375 26.8516 21.9062 25.9766C22.4531 24.9922 22.4531 23.5703 22.1406 21.9844C20.3437 23.0781 19.0937 24.1719 18.5469 25.1562ZM20.0312 31.8828C19.5625 32.7578 19.9531 33.6328 20.8906 33.8516C21.8281 34.0703 22.9219 33.5781 23.3906 32.7031C23.9375 31.7187 23.9375 30.2969 23.625 28.7109C21.8281 29.75 20.5781 30.8437 20.0312 31.8828ZM30.2656 32.7031C30.8125 31.7187 30.8125 30.2969 30.5 28.7109C28.7812 29.75 27.5312 30.8437 26.9844 31.8828C26.5156 32.7578 26.9062 33.6328 27.8437 33.8516C28.7812 34.0703 29.7969 33.5781 30.2656 32.7031ZM37.375 28.7109C35.6562 29.75 34.4062 30.8437 33.8594 31.8828C33.3906 32.7578 33.7812 33.6328 34.7187 33.8516C35.6562 34.0703 36.75 33.5781 37.2187 32.7031C37.6875 31.7187 37.7656 30.2969 37.375 28.7109ZM13.1562 31.8828C12.6875 32.7578 13.0781 33.6328 14.0156 33.8516C14.9531 34.0703 16.0469 33.5781 16.5156 32.7031C17.0625 31.7187 17.0625 30.2969 16.75 28.7109C14.9531 29.75 13.625 30.8437 13.1562 31.8828Z" fill="#75D6FF"/>
</g>
<defs>
<filter id="filter0_d_11_47" x="-1" y="0" width="58" height="43" filterUnits="userSpaceOnUse" color-interpolation-filters="sRGB">
<feFlood flood-opacity="0" result="BackgroundImageFix"/>
<feColorMatrix in="SourceAlpha" type="matrix" values="0 0 0 0 0 0 0 0 0 0 0 0 0 0 0 0 0 0 127 0" result="hardAlpha"/>
<feOffset dy="4"/>
<feGaussianBlur stdDeviation="2"/>
<feComposite in2="hardAlpha" operator="out"/>
<feColorMatrix type="matrix" values="0 0 0 0 0 0 0 0 0 0 0 0 0 0 0 0 0 0 0.25 0"/>
<feBlend mode="normal" in2="BackgroundImageFix" result="effect1_dropShadow_11_47"/>
<feBlend mode="normal" in="SourceGraphic" in2="effect1_dropShadow_11_47" result="shape"/>
</filter>
</defs>
</svg>
