<svg width="49" height="39" viewBox="0 0 49 39" fill="none" xmlns="http://www.w3.org/2000/svg">
<g filter="url(#filter0_d_11_39)">
<path d="M17.7812 17.1703C21.2322 17.1703 24.0297 15.0234 24.0297 12.375C24.0297 9.72662 21.2322 7.57969 17.7812 7.57969C14.3303 7.57969 11.5328 9.72662 11.5328 12.375C11.5328 15.0234 14.3303 17.1703 17.7812 17.1703Z" fill="#FFCE31"/>
<path d="M20.2672 6.75469L17.7812 2.0625L15.2953 6.75469C16.1016 6.65156 16.975 6.6 17.7812 6.6C18.6547 6.6 19.4609 6.65156 20.2672 6.75469ZM15.2953 17.9953L17.7812 22.6875L20.2672 17.9953C19.4609 18.0984 18.5875 18.15 17.7812 18.15C16.9078 18.15 16.1016 18.0984 15.2953 17.9953ZM25.1047 14.2828L31.2188 12.375L25.1047 10.4672C25.2391 11.0859 25.3062 11.7563 25.3062 12.375C25.3062 13.0453 25.2391 13.6641 25.1047 14.2828ZM10.4578 10.4672L4.34375 12.375L10.4578 14.2828C10.3234 13.6641 10.2562 12.9937 10.2562 12.375C10.2562 11.7047 10.3234 11.0859 10.4578 10.4672ZM24.7016 9.79688L27.2547 5.10469L21.1406 7.06406C21.8125 7.425 22.4844 7.8375 23.0891 8.30156C23.6938 8.76562 24.2312 9.22969 24.7016 9.79688ZM10.8609 14.9531L8.30781 19.6453L14.4219 17.6859C13.75 17.325 13.0781 16.9125 12.4734 16.4484C11.8688 15.9844 11.3312 15.5203 10.8609 14.9531ZM21.1406 17.6859L27.2547 19.6453L24.7016 14.9531C24.2312 15.4688 23.6938 15.9844 23.0891 16.4484C22.4844 16.9125 21.8797 17.325 21.1406 17.6859ZM14.4219 7.06406L8.30781 5.10469L10.8609 9.79688C11.3312 9.28125 11.8688 8.76562 12.4734 8.30156C13.0781 7.8375 13.6828 7.425 14.4219 7.06406Z" fill="#FFCE31"/>
<path d="M14.5562 29.9578C13.8844 29.9578 13.2125 29.8547 12.6078 29.7C10.0547 29.0297 8.3078 27.1734 8.3078 25.0594C8.3078 23.6672 9.11405 22.3266 10.4578 21.3984C10.7937 21.1406 11.1969 20.9344 11.6 20.7797L12.0031 19.6453C13.0109 16.8094 16.3703 14.85 20.1328 14.85C20.5359 14.85 20.8719 14.85 21.3422 14.9016L22.35 15.0563L22.4844 14.7984C24.0297 12.6844 26.9187 11.3438 30.0094 11.3438C34.7797 11.3438 38.6094 14.3344 38.6094 18.0469V18.7172C38.9453 18.8203 39.3484 18.975 39.6844 19.1297C41.9687 20.1609 43.3797 22.0687 43.3797 24.1312C43.3797 26.8125 41.0281 29.1328 37.6015 29.7516C37.064 29.8547 36.4594 29.9062 35.9219 29.9062L14.5562 29.9578Z" fill="white"/>
<path d="M30.0766 12.4266C34.1078 12.4266 37.4 15.0047 37.4 18.15V18.6141C35.7203 18.7172 34.175 19.2328 32.9656 20.0578C33.8391 19.6453 34.9141 19.4391 36.0562 19.4391C36.4594 19.4391 36.8625 19.4906 37.2656 19.5422C37.9375 19.6453 38.5422 19.8516 39.1469 20.1094C40.9609 20.9344 42.2375 22.4813 42.2375 24.2344C42.2375 26.5031 40.2219 28.4109 37.4672 28.875C36.9969 28.9781 36.5938 28.9781 36.0562 28.9781H14.5563C14.0188 28.9781 13.4812 28.9266 13.0109 28.7719C10.9953 28.2563 9.58438 26.8125 9.58438 25.0594C9.58438 23.8734 10.2562 22.8422 11.3312 22.1203C11.8016 21.8109 12.3391 21.5531 12.9437 21.3984C13.4813 21.2438 14.0187 21.1922 14.6234 21.1922C16.2359 21.1922 17.6469 21.8109 18.5875 22.6875H18.6547C17.5797 21.1406 15.6313 20.1094 13.2797 19.9031C14.1531 17.5313 16.9078 15.8297 20.2 15.8297C20.5359 15.8297 20.8719 15.8813 21.2078 15.8813C21.8797 15.9328 22.4844 16.0875 23.0891 16.2938C25.3062 17.0672 26.9188 18.6656 27.3219 20.625V20.5734C27.3219 18.3563 25.8438 16.4484 23.6938 15.3141C24.9031 13.6125 27.2547 12.4266 30.0766 12.4266ZM30.0766 10.5188C26.7172 10.5188 23.5594 11.8594 21.7453 14.0766H21.5437C21.0063 14.025 20.6031 13.9734 20.1328 13.9734C15.8328 13.9734 11.9359 16.2422 10.7938 19.4391L10.525 20.2125C10.1891 20.3672 9.92031 20.5219 9.65156 20.7281C7.97187 21.8109 7.03125 23.4094 7.03125 25.1109C7.03125 27.6375 9.11406 29.8547 12.2047 30.6797C12.9437 30.8859 13.75 30.9891 14.5563 30.9891H35.9891C36.6609 30.9891 37.2656 30.9375 37.9375 30.8344C41.9016 30.1125 44.6562 27.4312 44.6562 24.2859C44.6562 21.9141 42.9766 19.6453 40.2891 18.4594L39.8859 18.3047V18.2531C39.8859 13.9219 35.5187 10.5188 30.0766 10.5188Z" fill="#75D6FF"/>
</g>
<defs>
<filter id="filter0_d_11_39" x="-1" y="0" width="51" height="41" filterUnits="userSpaceOnUse" color-interpolation-filters="sRGB">
<feFlood flood-opacity="0" result="BackgroundImageFix"/>
<feColorMatrix in="SourceAlpha" type="matrix" values="0 0 0 0 0 0 0 0 0 0 0 0 0 0 0 0 0 0 127 0" result="hardAlpha"/>
<feOffset dy="4"/>
<feGaussianBlur stdDeviation="2"/>
<feComposite in2="hardAlpha" operator="out"/>
<feColorMatrix type="matrix" values="0 0 0 0 0 0 0 0 0 0 0 0 0 0 0 0 0 0 0.25 0"/>
<feBlend mode="normal" in2="BackgroundImageFix" result="effect1_dropShadow_11_39"/>
<feBlend mode="normal" in="SourceGraphic" in2="effect1_dropShadow_11_39" result="shape"/>
</filter>
</defs>
</svg>
