<svg width="49" height="39" viewBox="0 0 49 39" fill="none" xmlns="http://www.w3.org/2000/svg">
<g filter="url(#filter0_d_11_32)">
<path d="M12.8766 22.8938L16.1016 20.3672C14.9594 20.1609 13.8844 19.8516 12.9438 19.3359L12.8766 22.8938ZM23.3578 3.40312L20.1328 5.92969C21.275 6.13594 22.35 6.44531 23.2906 6.96094L23.3578 3.40312ZM5.41875 17.1703L10.0547 17.1188C9.45 16.3969 8.97969 15.5719 8.71094 14.6953L5.41875 17.1703ZM30.8156 9.12656L26.1797 9.17812C26.7844 9.9 27.2547 10.725 27.5234 11.6016L30.8156 9.12656ZM5.41875 9.12656L8.71094 11.6016C8.97969 10.725 9.38281 9.9 10.0547 9.17812L5.41875 9.12656ZM30.8156 17.1703L27.5234 14.6953C27.2547 15.5719 26.8516 16.3969 26.1797 17.1188L30.8156 17.1703ZM12.8766 3.40312L12.9438 6.96094C13.8844 6.49688 14.9594 6.13594 16.1016 5.92969L12.8766 3.40312ZM23.3578 22.8938L23.2906 19.3359C22.35 19.8 21.275 20.1609 20.1328 20.3672L23.3578 22.8938ZM10.1891 17.3766L8.375 20.625L12.6078 19.2328C11.6672 18.7172 10.8609 18.0984 10.1891 17.3766ZM26.0453 8.92031L27.8594 5.67188L23.6266 7.06406C24.5672 7.57969 25.3734 8.19844 26.0453 8.92031ZM8.64375 11.8078L4.34375 13.1484L8.64375 14.4891C8.57656 14.0766 8.50938 13.6125 8.50938 13.1484C8.44219 12.6844 8.50937 12.2719 8.64375 11.8078ZM27.5906 14.4891L31.8906 13.1484L27.5906 11.8078C27.725 12.2203 27.725 12.6844 27.725 13.1484C27.725 13.6125 27.725 14.025 27.5906 14.4891ZM12.6078 7.06406L8.375 5.67188L10.1891 8.92031C10.8609 8.19844 11.6672 7.57969 12.6078 7.06406ZM23.6266 19.2328L27.8594 20.625L26.0453 17.3766C25.3734 18.0984 24.5672 18.7172 23.6266 19.2328ZM19.8641 5.87812L18.1172 2.57812L16.3703 5.87812C16.9078 5.82656 17.5125 5.775 18.1172 5.775C18.7219 5.72344 19.2594 5.775 19.8641 5.87812ZM16.3703 20.4187L18.1172 23.7188L19.8641 20.4187C19.3266 20.4703 18.7219 20.5219 18.1172 20.5219C17.5125 20.5219 16.975 20.5219 16.3703 20.4187Z" fill="#FFCE31"/>
<path d="M18.1172 19.8516C22.941 19.8516 26.8516 16.8505 26.8516 13.1484C26.8516 9.4464 22.941 6.44531 18.1172 6.44531C13.2933 6.44531 9.38281 9.4464 9.38281 13.1484C9.38281 16.8505 13.2933 19.8516 18.1172 19.8516Z" fill="#FFCE31"/>
<path d="M14.5562 29.4422C13.8844 29.4422 13.2125 29.3391 12.6078 29.1844C10.0547 28.5141 8.3078 26.6578 8.3078 24.5438C8.3078 23.1516 9.11405 21.7594 10.4578 20.8313C10.7937 20.5734 11.1969 20.3672 11.6 20.2125L12.0031 19.0781C13.0109 16.2422 16.3703 14.2828 20.1328 14.2828C20.5359 14.2828 20.8719 14.2828 21.3422 14.3344L22.35 14.4891L22.4844 14.2313C24.0297 12.0656 26.9187 10.7766 30.0094 10.7766C34.7797 10.7766 38.6094 13.8188 38.6094 17.5313V18.2016C38.9453 18.3047 39.3484 18.4594 39.6844 18.6141C41.9687 19.6453 43.3797 21.6047 43.3797 23.6672C43.3797 26.4 41.0281 28.7203 37.6016 29.3391C37.0641 29.4422 36.4594 29.4938 35.9219 29.4938H14.5562V29.4422Z" fill="white"/>
<path d="M30.0766 11.7562C34.1078 11.7562 37.4 14.3344 37.4 17.5312V17.9953C35.7203 18.0984 34.175 18.6141 32.9656 19.4391C33.8391 19.0266 34.9141 18.8203 36.0562 18.8203C36.4594 18.8203 36.8625 18.8719 37.2656 18.9234C37.9375 19.0266 38.5422 19.2328 39.1469 19.4906C40.9609 20.3156 42.2375 21.8625 42.2375 23.6672C42.2375 25.9359 40.2219 27.8953 37.4672 28.3594C36.9969 28.4625 36.5938 28.4625 36.0562 28.4625H14.5563C14.0188 28.4625 13.4812 28.4109 13.0109 28.2563C10.9953 27.7406 9.58438 26.2453 9.58438 24.5437C9.58438 23.3578 10.2562 22.3266 11.3312 21.6047C11.8016 21.2953 12.3391 21.0375 12.9437 20.8313C13.4813 20.6766 14.0187 20.625 14.6234 20.625C16.2359 20.625 17.6469 21.2437 18.5875 22.1719H18.6547C17.5797 20.625 15.6313 19.5422 13.2797 19.3875C14.1531 17.0156 16.9078 15.2625 20.2 15.2625C20.5359 15.2625 20.8719 15.3141 21.2078 15.3141C21.8797 15.3656 22.4844 15.5203 23.0891 15.7266C25.3062 16.5 26.9188 18.15 27.3219 20.1094V20.0578C27.3219 17.8406 25.8438 15.8813 23.6938 14.7469C24.9031 12.9422 27.2547 11.7562 30.0766 11.7562ZM30.0766 9.79688C26.7172 9.79688 23.5594 11.1375 21.7453 13.4062H21.5437C21.0063 13.3547 20.6031 13.3031 20.1328 13.3031C15.8328 13.3031 11.9359 15.5719 10.7938 18.8203L10.4578 19.5938C10.1219 19.7484 9.85313 19.9031 9.58438 20.1094C7.97188 21.1922 7.03125 22.8422 7.03125 24.5437C7.03125 27.0703 9.11406 29.3391 12.2047 30.1125C12.9437 30.3188 13.75 30.4219 14.5563 30.4219H35.9891C36.6609 30.4219 37.2656 30.3703 37.9375 30.2672C41.9016 29.5453 44.6562 26.8125 44.6562 23.6672C44.6562 21.2438 42.9766 18.975 40.2891 17.7891L39.8859 17.6344V17.5828C39.8859 13.2516 35.5187 9.79688 30.0766 9.79688Z" fill="#75D6FF"/>
</g>
<defs>
<filter id="filter0_d_11_32" x="-1" y="0" width="51" height="41" filterUnits="userSpaceOnUse" color-interpolation-filters="sRGB">
<feFlood flood-opacity="0" result="BackgroundImageFix"/>
<feColorMatrix in="SourceAlpha" type="matrix" values="0 0 0 0 0 0 0 0 0 0 0 0 0 0 0 0 0 0 127 0" result="hardAlpha"/>
<feOffset dy="4"/>
<feGaussianBlur stdDeviation="2"/>
<feComposite in2="hardAlpha" operator="out"/>
<feColorMatrix type="matrix" values="0 0 0 0 0 0 0 0 0 0 0 0 0 0 0 0 0 0 0.25 0"/>
<feBlend mode="normal" in2="BackgroundImageFix" result="effect1_dropShadow_11_32"/>
<feBlend mode="normal" in="SourceGraphic" in2="effect1_dropShadow_11_32" result="shape"/>
</filter>
</defs>
</svg>
