<svg width="42" height="43" viewBox="0 0 42 43" fill="none" xmlns="http://www.w3.org/2000/svg">
<g filter="url(#filter0_d_11_65)">
<path d="M15.4875 25.5375C15.0938 26.4375 15.4219 27.3938 16.2094 27.675C16.9969 27.9 17.9813 27.3938 18.375 26.4375C18.8344 25.3688 18.8344 23.85 18.5719 22.1625C17.0625 23.2875 15.9469 24.4125 15.4875 25.5375ZM24.4125 26.4375C24.8719 25.3688 24.8719 23.85 24.6094 22.1625C23.1 23.2875 21.9844 24.4688 21.525 25.5375C21.1313 26.4375 21.4594 27.3938 22.2469 27.675C23.0344 27.9 24.0188 27.3375 24.4125 26.4375ZM30.5813 22.1625C29.0719 23.2875 27.9563 24.4688 27.4969 25.5375C27.1031 26.4375 27.4313 27.3938 28.2188 27.675C29.0063 27.9 29.9906 27.3938 30.3844 26.4375C30.9094 25.3688 30.9094 23.85 30.5813 22.1625ZM9.45001 25.5375C9.05626 26.4375 9.38439 27.3938 10.1719 27.675C10.9594 27.9 11.9438 27.3938 12.3375 26.4375C12.7969 25.3688 12.7969 23.85 12.5344 22.1625C11.025 23.2875 9.90939 24.4125 9.45001 25.5375ZM10.7625 32.6813C10.3688 33.5813 10.6969 34.5375 11.4844 34.8188C12.2719 35.0438 13.2563 34.5375 13.65 33.5813C14.1094 32.5125 14.1094 30.9938 13.8469 29.3063C12.3375 30.4313 11.2219 31.6125 10.7625 32.6813ZM19.6875 33.5813C20.1469 32.5125 20.1469 30.9938 19.8844 29.3063C18.375 30.4313 17.2594 31.6125 16.8 32.6813C16.4063 33.5813 16.7344 34.5375 17.5219 34.8188C18.3094 35.0438 19.2938 34.5375 19.6875 33.5813ZM25.8563 29.3063C24.3469 30.4313 23.2313 31.6125 22.7719 32.6813C22.3781 33.5813 22.7063 34.5375 23.4938 34.8188C24.2813 35.0438 25.2656 34.5375 25.6594 33.5813C26.1844 32.5125 26.1844 31.05 25.8563 29.3063ZM4.72501 32.6813C4.33126 33.5813 4.65939 34.5375 5.44689 34.8188C6.23439 35.0438 7.21876 34.5375 7.61251 33.5813C8.07189 32.5125 8.07189 30.9938 7.80939 29.3063C6.30001 30.4313 5.18439 31.6125 4.72501 32.6813Z" fill="#75D6FF"/>
<path d="M12.4031 18.9562C11.8781 18.9562 11.2875 18.9 10.7625 18.7312C8.59687 18.1125 7.21875 16.425 7.21875 14.5125C7.21875 13.2187 7.875 11.9812 8.99062 11.1375C9.25312 10.9125 9.58125 10.7437 9.975 10.575L10.3031 9.56249C11.1562 6.97499 13.9781 5.17499 17.0625 5.17499C17.3906 5.17499 17.7188 5.17499 18.0469 5.23124C18.3094 5.28749 18.6375 5.34374 18.9 5.39999L19.0312 5.17499C20.2781 3.20624 22.7063 2.02499 25.2656 2.02499C29.2031 2.02499 32.4188 4.78124 32.4188 8.15624V8.77499C32.7469 8.88749 33.0094 8.99999 33.3375 9.11249C35.2406 10.0687 36.4219 11.8125 36.4219 13.6687C36.4219 16.1437 34.4531 18.2812 31.6313 18.7875C31.1719 18.9 30.7125 18.9 30.2531 18.9L12.4031 18.9562Z" fill="white"/>
<path d="M25.2656 2.925C28.6125 2.925 31.3688 5.2875 31.3688 8.15625V8.55C29.925 8.6625 28.6781 9.1125 27.6938 9.9C28.4156 9.50625 29.3344 9.3375 30.2531 9.3375C30.5813 9.3375 30.9094 9.39375 31.2375 9.39375C31.7625 9.50625 32.2875 9.675 32.8125 9.9C34.3219 10.6313 35.3719 12.0938 35.3719 13.725C35.3719 15.8062 33.6656 17.55 31.3688 18C30.975 18.0562 30.6469 18.1125 30.1875 18.1125H12.4031C11.9438 18.1125 11.4844 18.0562 11.0906 17.9438C9.45001 17.4937 8.20313 16.1438 8.20313 14.5687C8.20313 13.5 8.72813 12.5437 9.64688 11.8688C10.0406 11.5875 10.5 11.3625 11.025 11.1937C11.4844 11.0813 11.9438 10.9688 12.4031 10.9688C13.7156 10.9688 14.9625 11.5312 15.6844 12.375H15.75C14.8969 10.9688 13.1906 10.0125 11.2875 9.84375C12.0094 7.70625 14.3063 6.13125 17.0625 6.13125C17.325 6.13125 17.6531 6.13125 17.9156 6.1875C18.4406 6.24375 19.0313 6.4125 19.4906 6.58125C21.3281 7.3125 22.7063 8.775 22.9688 10.5188V10.4625C22.9688 8.4375 21.7875 6.6375 19.95 5.625C20.9344 3.99375 22.9688 2.925 25.2656 2.925ZM25.2656 1.125C22.4438 1.125 19.8188 2.3625 18.375 4.3875H18.1781C17.7188 4.33125 17.3906 4.33125 16.9969 4.33125C13.3875 4.33125 10.2375 6.4125 9.18751 9.3375L8.92501 10.0687C8.66251 10.1812 8.40001 10.35 8.20313 10.5188C6.82501 11.5312 6.03751 12.9937 6.03751 14.5687C6.03751 16.875 7.74376 18.9 10.3031 19.6313C10.9594 19.8 11.6156 19.9125 12.2719 19.9125H30.1875C30.7125 19.9125 31.3031 19.8562 31.8281 19.7437C35.1094 19.125 37.4063 16.65 37.4063 13.725C37.4063 11.5312 36.0281 9.50625 33.7969 8.38125C33.6656 8.325 33.6 8.26875 33.4688 8.2125V8.15625C33.4688 4.275 29.7938 1.125 25.2656 1.125Z" fill="#B6C1D1"/>
</g>
<defs>
<filter id="filter0_d_11_65" x="-4" y="0" width="50" height="44" filterUnits="userSpaceOnUse" color-interpolation-filters="sRGB">
<feFlood flood-opacity="0" result="BackgroundImageFix"/>
<feColorMatrix in="SourceAlpha" type="matrix" values="0 0 0 0 0 0 0 0 0 0 0 0 0 0 0 0 0 0 127 0" result="hardAlpha"/>
<feOffset dy="4"/>
<feGaussianBlur stdDeviation="2"/>
<feComposite in2="hardAlpha" operator="out"/>
<feColorMatrix type="matrix" values="0 0 0 0 0 0 0 0 0 0 0 0 0 0 0 0 0 0 0.25 0"/>
<feBlend mode="normal" in2="BackgroundImageFix" result="effect1_dropShadow_11_65"/>
<feBlend mode="normal" in="SourceGraphic" in2="effect1_dropShadow_11_65" result="shape"/>
</filter>
</defs>
</svg>
