<svg width="41" height="35" viewBox="0 0 41 35" fill="none" xmlns="http://www.w3.org/2000/svg">
<g filter="url(#filter0_d_11_82)">
<path d="M11.0714 23.3182C11.0714 24.3409 10.7277 25.2102 10.0402 25.9261C9.35268 26.642 8.51786 27 7.53571 27C6.55357 27 5.71875 26.642 5.03125 25.9261C4.34375 25.2102 4 24.3409 4 23.3182C4 22.2955 4.34375 21.4261 5.03125 20.7102C5.71875 19.9943 6.55357 19.6364 7.53571 19.6364C8.51786 19.6364 9.35268 19.9943 10.0402 20.7102C10.7277 21.4261 11.0714 22.2955 11.0714 23.3182ZM11.0714 13.5C11.0714 14.5227 10.7277 15.392 10.0402 16.108C9.35268 16.8239 8.51786 17.1818 7.53571 17.1818C6.55357 17.1818 5.71875 16.8239 5.03125 16.108C4.34375 15.392 4 14.5227 4 13.5C4 12.4773 4.34375 11.608 5.03125 10.892C5.71875 10.1761 6.55357 9.81818 7.53571 9.81818C8.51786 9.81818 9.35268 10.1761 10.0402 10.892C10.7277 11.608 11.0714 12.4773 11.0714 13.5ZM37 21.4773V25.1591C37 25.3253 36.9417 25.4691 36.8251 25.5906C36.7084 25.712 36.5703 25.7727 36.4107 25.7727H14.0179C13.8583 25.7727 13.7201 25.712 13.6035 25.5906C13.4869 25.4691 13.4286 25.3253 13.4286 25.1591V21.4773C13.4286 21.3111 13.4869 21.1673 13.6035 21.0458C13.7201 20.9244 13.8583 20.8636 14.0179 20.8636H36.4107C36.5703 20.8636 36.7084 20.9244 36.8251 21.0458C36.9417 21.1673 37 21.3111 37 21.4773ZM11.0714 3.68182C11.0714 4.70455 10.7277 5.57386 10.0402 6.28977C9.35268 7.00568 8.51786 7.36364 7.53571 7.36364C6.55357 7.36364 5.71875 7.00568 5.03125 6.28977C4.34375 5.57386 4 4.70455 4 3.68182C4 2.65909 4.34375 1.78977 5.03125 1.07386C5.71875 0.357955 6.55357 0 7.53571 0C8.51786 0 9.35268 0.357955 10.0402 1.07386C10.7277 1.78977 11.0714 2.65909 11.0714 3.68182ZM37 11.6591V15.3409C37 15.5071 36.9417 15.6509 36.8251 15.7724C36.7084 15.8938 36.5703 15.9545 36.4107 15.9545H14.0179C13.8583 15.9545 13.7201 15.8938 13.6035 15.7724C13.4869 15.6509 13.4286 15.5071 13.4286 15.3409V11.6591C13.4286 11.4929 13.4869 11.3491 13.6035 11.2276C13.7201 11.1062 13.8583 11.0455 14.0179 11.0455H36.4107C36.5703 11.0455 36.7084 11.1062 36.8251 11.2276C36.9417 11.3491 37 11.4929 37 11.6591ZM37 1.84091V5.52273C37 5.68892 36.9417 5.83274 36.8251 5.95419C36.7084 6.07564 36.5703 6.13636 36.4107 6.13636H14.0179C13.8583 6.13636 13.7201 6.07564 13.6035 5.95419C13.4869 5.83274 13.4286 5.68892 13.4286 5.52273V1.84091C13.4286 1.67472 13.4869 1.53089 13.6035 1.40945C13.7201 1.288 13.8583 1.22727 14.0179 1.22727H36.4107C36.5703 1.22727 36.7084 1.288 36.8251 1.40945C36.9417 1.53089 37 1.67472 37 1.84091Z" fill="white"/>
</g>
<defs>
<filter id="filter0_d_11_82" x="0" y="0" width="41" height="35" filterUnits="userSpaceOnUse" color-interpolation-filters="sRGB">
<feFlood flood-opacity="0" result="BackgroundImageFix"/>
<feColorMatrix in="SourceAlpha" type="matrix" values="0 0 0 0 0 0 0 0 0 0 0 0 0 0 0 0 0 0 127 0" result="hardAlpha"/>
<feOffset dy="4"/>
<feGaussianBlur stdDeviation="2"/>
<feComposite in2="hardAlpha" operator="out"/>
<feColorMatrix type="matrix" values="0 0 0 0 0 0 0 0 0 0 0 0 0 0 0 0 0 0 0.25 0"/>
<feBlend mode="normal" in2="BackgroundImageFix" result="effect1_dropShadow_11_82"/>
<feBlend mode="normal" in="SourceGraphic" in2="effect1_dropShadow_11_82" result="shape"/>
</filter>
</defs>
</svg>
